<svg width="1200" height="675" viewBox="0 0 1200 675" fill="none" xmlns="http://www.w3.org/2000/svg" role="img" aria-label="Listing placeholder">
  <defs>
    <linearGradient id="g" x1="0" y1="0" x2="1200" y2="675" gradientUnits="userSpaceOnUse">
      <stop stop-color="#0EA5E9" stop-opacity="0.14"/>
      <stop offset="0.5" stop-color="#10B981" stop-opacity="0.12"/>
      <stop offset="1" stop-color="#22C55E" stop-opacity="0.10"/>
    </linearGradient>
    <pattern id="z" width="64" height="64" patternUnits="userSpaceOnUse">
      <path d="M32 4 L60 32 L32 60 L4 32 Z" fill="#0F766E" fill-opacity="0.08"/>
      <path d="M32 14 L50 32 L32 50 L14 32 Z" fill="#0284C7" fill-opacity="0.08"/>
    </pattern>
    <linearGradient id="m" x1="0" y1="675" x2="1200" y2="0" gradientUnits="userSpaceOnUse">
      <stop stop-color="#0F172A" stop-opacity="0.25"/>
      <stop offset="1" stop-color="#0F172A" stop-opacity="0"/>
    </linearGradient>
  </defs>
  <rect width="1200" height="675" rx="28" fill="white"/>
  <rect width="1200" height="675" rx="28" fill="url(#g)"/>
  <rect width="1200" height="675" rx="28" fill="url(#z)" opacity="0.75"/>
  <path d="M0 520 C240 460 420 610 600 560 C810 500 930 420 1200 460 L1200 675 L0 675 Z" fill="url(#m)"/>
  <g opacity="0.55">
    <path d="M540 320c0-33 27-60 60-60s60 27 60 60-27 60-60 60-60-27-60-60Z" fill="#0F172A" fill-opacity="0.18"/>
    <path d="M470 448c0-37 30-68 68-68h124c37 0 68 31 68 68v48H470v-48Z" fill="#0F172A" fill-opacity="0.14"/>
    <path d="M300 230h210c18 0 34 16 34 34v144c0 18-16 34-34 34H300c-18 0-34-16-34-34V264c0-18 16-34 34-34Zm12 64h186v116H312V294Z" fill="#0F172A" fill-opacity="0.10"/>
  </g>
</svg>

